# xmcd
#
# Track frame offsets:
#	150
#	17530
#	34487
#	67050
#	88682
#	110932
#	124030
#	147077
#	167335
#	180102
#	200965
#	228785
#	248865
#	268572
#	285775
#
# Disc length: 4268 seconds
#
# Revision: 0
# Processed by: cddbd v1.5.2PL0 Copyright (c) Steve Scherf et al.
# Submitted via: audiograbber 1.83.01
#
DISCID=cc10aa0f
DTITLE=Various Artist - This Is The Blues (Vol-4)
DYEAR=2010
DGENRE=Blues
TTITLE0=John Lee Hooker - This Is Hip
TTITLE1=Traditional and The Pretty Things - Judgment Day
TTITLE2=Peter Green - Looking For Somebody
TTITLE3=James Bracken and John Lee Hooker - Baby Lee
TTITLE4=Deadric Malone - Blind Man
TTITLE5=Peter Green - Man of The World
TTITLE6=Peter Green - The Green Manalishi
TTITLE7=P.A. Green - Watch Out
TTITLE8=P.A. Green and C.G. Adams - Lazy Poker Blues
TTITLE9=Robert Hunter and Greg Anton - The Business
TTITLE10=Peter Green - Drifting
TTITLE11=P.A. Green - A Fool no More
TTITLE12=Mose Allison - If You Live
TTITLE13=Benjamin, Caldwell and Marcus - Son't Let Me Be Misunderstood
TTITLE14=Peter Green - Oh Well
EXTD=
EXTT0=
EXTT1=
EXTT2=
EXTT3=
EXTT4=
EXTT5=
EXTT6=
EXTT7=
EXTT8=
EXTT9=
EXTT10=
EXTT11=
EXTT12=
EXTT13=
EXTT14=
PLAYORDER=
